<svg xmlns="http://www.w3.org/2000/svg" width="11" height="11" viewBox="0 0 11 11">
  <path id="Icon_open-magnifying-glass" data-name="Icon open-magnifying-glass" d="M4.769-.031a4.769,4.769,0,0,0,0,9.539,4.714,4.714,0,0,0,2.262-.559,1.363,1.363,0,0,0,.177.177l1.363,1.363a1.39,1.39,0,1,0,1.962-1.962L9.171,7.163a1.363,1.363,0,0,0-.218-.177,4.705,4.705,0,0,0,.6-2.262A4.775,4.775,0,0,0,4.783-.045Zm0,1.363A3.391,3.391,0,0,1,8.176,4.738a3.417,3.417,0,0,1-.9,2.344l-.041.041a1.363,1.363,0,0,0-.177.177,3.41,3.41,0,0,1-2.3.858,3.407,3.407,0,1,1,0-6.813Z" transform="translate(0 0.045)" fill="#202224"/>
</svg>
