<svg xmlns="http://www.w3.org/2000/svg" xmlns:xlink="http://www.w3.org/1999/xlink" width="26.339" height="25.15" viewBox="0 0 26.339 25.15">
  <defs>
    <linearGradient id="linear-gradient" x1="0.5" x2="0.5" y2="1" gradientUnits="objectBoundingBox">
      <stop offset="0" stop-color="#f3e031"/>
      <stop offset="1" stop-color="#f1dd9e"/>
    </linearGradient>
    <linearGradient id="linear-gradient-2" x1="0.859" x2="0.749" y2="1" gradientUnits="objectBoundingBox">
      <stop offset="0" stop-color="#fd8743"/>
      <stop offset="1" stop-color="#f2df3c"/>
    </linearGradient>
    <linearGradient id="linear-gradient-3" x1="0.859" x2="0.749" y2="1" gradientUnits="objectBoundingBox">
      <stop offset="0" stop-color="#ed651e"/>
      <stop offset="1" stop-color="#f2df3c"/>
    </linearGradient>
  </defs>
  <g id="Group_304" data-name="Group 304" transform="translate(4134.765 -6.663)">
    <path id="Intersection_16" data-name="Intersection 16" d="M0,9.258A13.636,13.636,0,0,1,3.607,0,5.217,5.217,0,0,1,7.848,3.787c1.069,4.038-2.372,7.065-2.229,14.274a4.988,4.988,0,0,1-.232,2.081A13.663,13.663,0,0,1,0,9.258Z" transform="translate(-4116.48 6.921)" fill="url(#linear-gradient)"/>
    <path id="Subtraction_3" data-name="Subtraction 3" d="M13.006,25.15a15.735,15.735,0,0,1-8.73-2.988A12.451,12.451,0,0,1,1.2,19.106,6.251,6.251,0,0,1,0,15.612a12.164,12.164,0,0,1,.745-4.04A14.749,14.749,0,0,1,3.3,7.134a17.525,17.525,0,0,1,4.832-4A25.18,25.18,0,0,1,15.715.4,19.052,19.052,0,0,1,19.409,0a11.162,11.162,0,0,1,2.483.258,13.681,13.681,0,0,0-2.141,15.426A13.811,13.811,0,0,0,23.672,20.4a5.031,5.031,0,0,1-1.435,2.11,8.41,8.41,0,0,1-2.448,1.481A18.171,18.171,0,0,1,13.006,25.15Z" transform="translate(-4134.765 6.663)" fill="url(#linear-gradient-2)"/>
    <path id="Subtraction_4" data-name="Subtraction 4" d="M13.006,16.988A15.736,15.736,0,0,1,4.276,14,12.453,12.453,0,0,1,1.2,10.944,6.253,6.253,0,0,1,0,7.45,12.164,12.164,0,0,1,.745,3.41,14.549,14.549,0,0,1,2.514,0a14.39,14.39,0,0,0-.259,2.722A14.274,14.274,0,0,0,14.96,16.908C14.325,16.962,13.667,16.988,13.006,16.988Z" transform="translate(-4134.765 14.825)" fill="url(#linear-gradient-3)"/>
  </g>
</svg>
